D:\PredSimResults\Vitruvian_Man\IG_v35ms_ATx70.mot
version=1
nRows=18
nColumns=31
inDegrees=yes
endheader
                time	         pelvis_tilt	           pelvis_tx	           pelvis_ty	       hip_flexion_r	        knee_angle_r	       ankle_angle_r	       hip_flexion_l	        knee_angle_l	       ankle_angle_l	    lumbar_extension	          arm_flex_r	          arm_flex_l	hamstrings_r/activation	bifemsh_r/activation	glut_max_r/activation	iliopsoas_r/activation	rect_fem_r/activation	  vasti_r/activation	gastroc_r/activation	 soleus_r/activation	tib_ant_r/activation	hamstrings_l/activation	bifemsh_l/activation	glut_max_l/activation	iliopsoas_l/activation	rect_fem_l/activation	  vasti_l/activation	gastroc_l/activation	 soleus_l/activation	tib_ant_l/activation	
          0.00000000	         -5.37180475	          0.00000000	          0.99692081	         28.31471743	        -12.66175811	          6.56893120	          3.79074532	        -46.16918756	        -20.11863051	         -6.98698966	         49.21641980	         49.21640577	          0.68221489	          0.13477444	          0.67307312	          0.05000000	          0.05000000	          0.07177887	          0.07177887	          0.07177887	          0.68200509	          0.05000000	          0.70134353	          0.05000000	          0.83954420	          0.97837307	          0.05403112	          0.17509459	          0.11029189	          0.38926790	
          0.00567619	         -5.45655865	          0.02079014	          0.99398160	         27.89022855	        -13.48801916	          5.69932570	          4.76842268	        -47.43404720	        -19.39479203	         -6.73666978	         48.51644759	         48.51643321	          0.62325321	          0.12312631	          0.76282361	          0.05000000	          0.05000000	          0.06557525	          0.06557525	          0.06557525	          0.76930351	          0.05000027	          0.73914386	          0.05000000	          0.76698503	          0.98431026	          0.05000000	          0.15996172	          0.10075971	          0.39673586	
          0.01135237	         -5.55327593	          0.04140599	          0.99083360	         27.58540691	        -14.84918884	          4.99834672	          5.86082127	        -48.72891487	        -18.62211076	         -6.48994110	         47.90151281	         47.90149806	          0.56938739	          0.11248489	          0.82793511	          0.05000000	          0.05000000	          0.05990779	          0.05990779	          0.05990779	          0.83263609	          0.06557525	          0.81075602	          0.05000000	          0.70069693	          0.98861753	          0.05000000	          0.14613673	          0.09205136	          0.38578631	
          0.01702856	         -5.66259923	          0.06167210	          0.98765980	         27.46978558	        -16.53915502	          4.57382842	          7.08562376	        -50.04953951	        -17.86613552	         -6.27256879	         47.39273271	         47.39271758	          0.52017703	          0.10276318	          0.87517169	          0.05000000	          0.05000000	          0.05473015	          0.05473014	          0.05473014	          0.87858212	          0.05990779	          0.86270874	          0.05000000	          0.64013790	          0.99174234	          0.05000000	          0.13350660	          0.08409565	          0.37427014	
          0.02270474	         -5.78866807	          0.08148641	          0.98456430	         27.62517923	        -18.59826118	          3.94772010	          8.45354871	        -51.38899764	        -17.15022685	         -6.09389072	         47.00371013	         47.00369462	          0.47521977	          0.09388169	          0.90944052	          0.05000000	          0.05000000	          0.05000000	          0.05000000	          0.05000000	          0.91191470	          0.05473015	          0.90039900	          0.05000000	          0.58481280	          0.99400929	          0.05000000	          0.12196804	          0.07682753	          0.37753429	
          0.02838093	         -5.92007793	          0.10093735	          0.98152139	         28.01723151	        -21.07670619	          3.72306213	          9.93007318	        -52.72906408	        -16.40441908	         -5.95316368	         46.73443927	         46.73442338	          0.43414802	          0.08576779	          0.93430161	          0.05000000	          0.05000000	          0.31080133	          0.05000000	          0.05665205	          0.83310078	          0.05000000	          0.92774223	          0.05000000	          0.53426927	          0.95708386	          0.05000000	          0.11142673	          0.07018757	          0.38890227	
          0.03405712	         -6.04365180	          0.12019823	          0.97852457	         28.48294143	        -23.77594617	          4.25486058	         11.46540712	        -54.03617221	        -15.57241709	         -5.84118789	         46.56991329	         46.56989703	          0.39662597	          0.07835515	          0.95233764	          0.05000000	          0.05473030	          0.50000547	          0.25216289	          0.31562721	          0.76109850	          0.05000000	          0.94757900	          0.05000000	          0.48809405	          0.90521323	          0.05000000	          0.10179647	          0.06412148	          0.38785424	
          0.03973330	         -6.16578962	          0.13936778	          0.97562077	         28.88743188	        -26.44715019	          5.44183789	         13.04392767	        -55.28281881	        -14.67224430	         -5.73743321	         46.49457435	         46.49455774	          0.36234683	          0.07158316	          0.96542228	          0.05000000	          0.05000014	          0.63726783	          0.23036925	          0.31034946	          0.69531915	          0.05000000	          0.96197002	          0.05000000	          0.44590962	          0.84907981	          0.05000000	          0.09299852	          0.05857966	          0.38943800	
          0.04540949	         -6.29952339	          0.15849096	          0.97286099	         29.14156592	        -28.84411834	          6.69691815	         14.66686241	        -56.45319798	        -13.73649525	         -5.62122362	         46.49818350	         46.49816656	          0.33103034	          0.06539645	          0.97491483	          0.05000000	          0.05000000	          0.73684787	          0.21045917	          0.37943520	          0.63522490	          0.05000000	          0.97241030	          0.05000000	          0.40737106	          0.77569652	          0.05000000	          0.08496095	          0.05351681	          0.38636613	
          0.05108568	         -6.45555808	          0.17758575	          0.97028158	         29.20982967	        -30.86553355	          7.83206682	         16.33763117	        -57.54127248	        -12.77768324	         -5.47809345	         46.57622789	         46.57621065	          0.30242043	          0.05974444	          0.98180141	          0.05000000	          0.05000000	          0.80909042	          0.24985215	          0.43882434	          0.58032441	          0.05000000	          0.97998444	          0.05000000	          0.37216327	          0.70865551	          0.05000000	          0.07761805	          0.05000000	          0.38762474	
          0.05676186	         -6.64149373	          0.19664427	          0.96791650	         29.10586581	        -32.52744562	          8.88148769	         18.06003115	        -58.54562862	        -11.81477839	         -5.30061395	         46.72859896	         46.72858146	          0.27628318	          0.05458092	          0.98679743	          0.05000000	          0.05000000	          0.86150040	          0.29063802	          0.50505560	          0.53016880	          0.05000000	          0.98547927	          0.05000000	          0.34569092	          0.64740865	          0.05000000	          0.07090977	          0.05000000	          0.39239335	
          0.06243805	         -6.85755772	          0.21565890	          0.96579971	         28.85046485	        -33.86396950	          9.84110103	         19.82978104	        -59.46444310	        -10.89178344	         -5.09001701	         46.95667093	         46.95665322	          0.25240489	          0.05000000	          0.99042190	          0.05000000	          0.05000000	          0.89952238	          0.33350664	          0.57132323	          0.48434798	          0.05000000	          0.98946561	          0.05000000	          0.33355952	          0.59145515	          0.05000000	          0.06478126	          0.05000000	          0.39740998	
          0.06811423	         -7.09779360	          0.23463170	          0.96396156	         28.45721395	        -34.90641252	         10.69789487	         21.63436471	        -60.29705868	        -10.02507635	         -4.85360531	         47.26152096	         47.26150310	          0.23059033	          0.05000000	          0.99305136	          0.05000000	          0.05000000	          0.92710627	          0.37906790	          0.63929742	          0.44248731	          0.05000000	          0.99235760	          0.05000000	          0.32824940	          0.54033755	          0.05000000	          0.05918242	          0.05000000	          0.40190492	
          0.07379042	         -7.35075099	          0.25357272	          0.96243028	         27.92988783	        -35.67976999	         11.44160218	         23.45403717	        -61.04447110	         -9.19086014	         -4.60439097	         47.64384335	         47.64382540	          0.21066114	          0.05000000	          0.90722507	          0.05000000	          0.05000000	          0.94711762	          0.42642174	          0.70113397	          0.40424452	          0.05000000	          0.99445565	          0.05000000	          0.30485071	          0.49363787	          0.05000000	          0.05406748	          0.05000000	          0.40803271	
          0.07946661	         -7.60925680	          0.27248808	          0.96121704	         27.27759449	        -36.20949952	         12.06177022	         25.27491576	        -61.70967556	         -8.36414959	         -4.35129707	         48.10344091	         48.10342294	          0.19245436	          0.05000000	          0.82881646	          0.05000000	          0.05000000	          0.96163530	          0.47653609	          0.78318097	          0.36930694	          0.05000000	          0.90850798	          0.05000000	          0.28978465	          0.45097430	          0.05000000	          0.05000000	          0.05000000	          0.41297244	
          0.08514279	         -7.86656962	          0.29138465	          0.96032734	         26.50652687	        -36.51495434	         12.54704571	         27.08173833	        -62.28858820	         -7.54419430	         -4.10318526	         48.63897470	         48.63895679	          0.18434349	          0.05000000	          0.75718446	          0.05000000	          0.05000000	          0.97216748	          0.52863779	          0.84270380	          0.33738890	          0.05000000	          0.82998849	          0.05000000	          0.27913569	          0.41199801	          0.05000000	          0.05000000	          0.05000000	          0.41566073	
          0.09081898	         -8.11210261	          0.31027597	          0.95977207	         25.61302315	        -36.60713125	         12.89247535	         28.85317980	        -62.77154307	         -6.75365896	         -3.87284136	         49.24748805	         49.24747028	          0.17877346	          0.05000000	          0.69174339	          0.05000000	          0.05000000	          0.97980828	          0.58276426	          0.88588597	          0.30822944	          0.05000000	          0.75825520	          0.05000000	          0.26996210	          0.37639032	          0.05000000	          0.05000000	          0.05000000	          0.41425378	
          0.09649517	         -8.33397836	          0.32918018	          0.95956298	         24.58891732	        -36.49251842	         13.09568518	         30.56663422	        -63.14994261	         -6.01098241	         -3.67393838	         49.92400735	         49.92398980	          0.17214442	          0.05000000	          0.63195818	          0.05000000	          0.05000000	          0.98535147	          0.64012959	          0.91721344	          0.28159014	          0.05000000	          0.69272159	          0.05000000	          0.25898142	          0.34386009	          0.05000000	          0.05000000	          0.05000000	          0.40932834	
